<svg width="210" height="85" viewBox="0 0 210 85" fill="none" xmlns="http://www.w3.org/2000/svg">
<path d="M37.9911 23.0371C38.0853 23.0364 38.1794 23.0356 38.2764 23.0349C38.5876 23.0327 38.8989 23.0314 39.2101 23.0302C39.3699 23.0296 39.3699 23.0296 39.5329 23.0289C40.0967 23.0265 40.6606 23.0249 41.2244 23.0239C41.8057 23.0226 42.3869 23.0188 42.9681 23.0144C43.4161 23.0114 43.864 23.0105 44.3119 23.0101C44.5262 23.0096 44.7404 23.0083 44.9546 23.0062C45.255 23.0034 45.5553 23.0036 45.8557 23.0043C45.9434 23.0029 46.0311 23.0015 46.1214 23C46.7453 23.0058 47.215 23.16 47.739 23.504C48.1807 23.9684 48.447 24.5395 48.504 25.1806C48.4493 26.0399 48.0314 26.7926 47.6636 27.5548C47.5007 27.8961 47.3436 28.2398 47.1873 28.5841C46.257 30.6327 46.257 30.6327 45.7985 31.5379C45.3634 32.3973 44.9654 33.2735 44.5628 34.1485C44.0531 35.2558 43.5359 36.3594 43.0164 37.4621C42.2694 39.048 41.5278 40.6363 40.7906 42.2268C40.5627 42.7183 40.3343 43.2095 40.1056 43.7006C40.0054 43.9159 39.9052 44.1312 39.805 44.3466C39.7391 44.4881 39.6732 44.6296 39.6072 44.7712C39.2703 45.4944 38.9356 46.2185 38.6089 46.9465C36.6519 51.3065 36.6519 51.3065 34.5658 52.1607C34.0596 52.3512 33.6177 52.4682 33.075 52.4676C32.9154 52.4678 32.9154 52.4678 32.7525 52.4681C32.6365 52.4677 32.5206 52.4673 32.4011 52.4668C32.2783 52.4669 32.1556 52.4669 32.0292 52.4669C31.6233 52.4668 31.2175 52.4659 30.8117 52.4651C30.5304 52.4649 30.2491 52.4647 29.9678 52.4646C29.3029 52.4642 28.638 52.4633 27.9732 52.4622C27.2161 52.461 26.4591 52.4603 25.702 52.4598C24.145 52.4586 22.5879 52.4566 21.0309 52.4542C21.1199 51.9626 21.2811 51.5327 21.483 51.0779C21.5268 50.9762 21.5268 50.9762 21.5714 50.8725C21.8083 50.3328 22.0693 49.8061 22.3333 49.2794C22.8307 48.2866 23.3059 47.2836 23.7782 46.2785C23.8667 46.0905 23.9552 45.9025 24.0437 45.7145C24.6088 44.5133 25.1686 43.3098 25.7241 42.1041C26.1891 41.0952 26.659 40.0886 27.1306 39.0829C27.1677 39.0037 27.2048 38.9245 27.2431 38.843C27.6264 38.0254 28.0101 37.208 28.3942 36.3907C29.1747 34.7299 29.9513 33.0681 30.7039 31.3943C30.9598 30.8252 31.2218 30.2592 31.4872 29.6945C31.6802 29.2815 31.8662 28.8654 32.0523 28.4492C32.1468 28.2398 32.2414 28.0306 32.3361 27.8213C32.4276 27.6181 32.5177 27.4143 32.6078 27.2105C33.4962 25.2537 34.6543 24.0129 36.6106 23.1686C37.0683 23.0338 37.5175 23.0387 37.9911 23.0371Z" fill="white"/>
<path d="M1.57449 42.8047C1.66069 42.8038 1.74688 42.8028 1.83569 42.8018C1.92932 42.8019 2.02296 42.802 2.11944 42.8021C2.21882 42.8013 2.31821 42.8006 2.42061 42.7998C2.74966 42.7977 3.07868 42.7972 3.40772 42.797C3.63724 42.7962 3.86675 42.7955 4.09627 42.7947C4.5781 42.7933 5.05992 42.7929 5.54175 42.793C6.1561 42.7931 6.77041 42.79 7.38475 42.7861C7.85936 42.7836 8.33397 42.7831 8.80858 42.7832C9.03486 42.783 9.26113 42.782 9.4874 42.7802C11.499 42.766 13.0755 43.0159 14.61 44.5104C15.3289 45.2779 15.7882 46.1933 16.274 47.1332C16.4072 47.3872 16.5405 47.6411 16.6741 47.8949C16.9321 48.3861 17.1895 48.8778 17.446 49.3698C17.8783 50.1988 18.315 51.025 18.7566 51.8485C18.8111 51.9504 18.8656 52.0522 18.9217 52.1572C18.9998 52.3025 18.9998 52.3025 19.0795 52.4507C19.1293 52.5441 19.1792 52.6375 19.2306 52.7337C19.3396 52.9294 19.4544 53.1216 19.5734 53.3108C19.6335 53.4075 19.6936 53.5043 19.7555 53.6039C19.8108 53.6892 19.8662 53.7745 19.9232 53.8623C20.1256 54.3929 19.9618 54.836 19.7712 55.3498C19.707 55.4969 19.6417 55.6435 19.5756 55.7897C19.5405 55.8694 19.5054 55.9492 19.4693 56.0313C19.3943 56.2014 19.3189 56.3713 19.2432 56.541C19.0447 56.9854 18.8493 57.4313 18.6534 57.8769C18.6146 57.965 18.5758 58.0531 18.5358 58.1439C18.216 58.8706 17.909 59.6027 17.6092 60.3389C17.2766 61.1536 16.9339 61.9609 16.5726 62.7619C16.4235 63.0951 16.2824 63.4314 16.1432 63.7693C16.1014 63.8697 16.0597 63.97 16.0167 64.0734C15.9359 64.2684 15.8559 64.4638 15.777 64.6597C15.4002 65.5646 14.9488 66.3807 14.0862 66.8313C13.3503 67.0832 12.5728 67.0653 11.8791 66.6943C11.0085 66.1526 10.5528 65.1586 10.0876 64.2553C9.95438 64.0005 9.82102 63.7457 9.68758 63.4909C9.62154 63.3644 9.55549 63.2378 9.48744 63.1073C9.21409 62.5866 8.93342 62.0705 8.65177 61.5548C8.11576 60.5706 7.58896 59.5812 7.06385 58.5905C6.66906 57.8464 6.27018 57.105 5.86725 56.3658C5.37793 55.4682 4.89988 54.5643 4.42466 53.6583C3.91258 52.6825 3.39105 51.7138 2.85459 50.7527C2.30104 49.7606 1.76134 48.7613 1.23085 47.7553C1.16345 47.6277 1.09606 47.5001 1.02662 47.3687C0.847126 47.0271 0.669635 46.6845 0.492779 46.3414C0.446955 46.2553 0.401132 46.1692 0.35392 46.0805C-0.0231353 45.3442 -0.060073 44.6711 0.0633583 43.853C0.371518 43.213 0.883898 42.8082 1.57449 42.8047Z" fill="white"/>
<path d="M63.4667 65.3333L56.9333 24H64.9333L67.3333 40.4444C67.4815 41.363 67.6296 42.2667 67.7778 43.1556C67.9259 44.0148 68.0296 44.9778 68.0889 46.0444C68.6222 45.0074 69.1556 44.0741 69.6889 43.2444C70.2222 42.3852 70.8148 41.4519 71.4667 40.4444L82.1333 24H90.6222L63.5556 65.3333H63.4667ZM96.2361 64.8889C93.6583 64.8889 91.3472 64.3407 89.3028 63.2444C87.2583 62.1185 85.6435 60.6074 84.4583 58.7111C83.3028 56.8148 82.725 54.6667 82.725 52.2667C82.725 50.1333 83.1546 48.1185 84.0139 46.2222C84.9028 44.2963 86.1176 42.6074 87.6583 41.1556C89.1991 39.6741 90.9769 38.5185 92.9917 37.6889C95.0065 36.8593 97.1398 36.4444 99.3917 36.4444C102.177 36.4444 104.503 37.0667 106.369 38.3111C108.266 39.5556 109.584 41.2444 110.325 43.3778C111.095 45.5111 111.14 47.9259 110.458 50.6222L109.881 52.9333H93.6139C93.0509 52.9333 92.488 52.9037 91.925 52.8444C91.362 52.7852 90.7694 52.6963 90.1472 52.5778C90.4139 54.4444 91.1546 55.8963 92.3694 56.9333C93.6139 57.9704 95.1546 58.4889 96.9917 58.4889C98.5324 58.4889 100.088 58.0889 101.658 57.2889C103.229 56.4889 104.369 55.5259 105.081 54.4V62.0444C103.984 62.9037 102.651 63.5852 101.081 64.0889C99.5398 64.6222 97.925 64.8889 96.2361 64.8889ZM90.1472 47.9111C91.9546 47.5259 93.5694 47.3333 94.9917 47.3333H99.7028C100.503 47.3333 101.244 47.363 101.925 47.4222C102.636 47.4815 103.318 47.5852 103.969 47.7333C103.851 46.1333 103.273 44.8889 102.236 44C101.229 43.0815 99.8509 42.6222 98.1028 42.6222C96.2954 42.6222 94.6806 43.1111 93.2583 44.0889C91.8361 45.0667 90.7991 46.3407 90.1472 47.9111ZM111.501 64L122.168 21.3333H129.901L119.235 64H111.501ZM128.274 64L133.429 43.4667H128.451L129.963 37.3333H135.074L137.296 28.4444H144.763L142.585 37.3333H147.829L146.318 43.4667H141.163L136.007 64H128.274ZM145.162 64L151.829 37.3333H158.763L157.74 41.4667C159.044 40.0444 160.496 38.963 162.096 38.2222C163.696 37.4519 165.4 37.0667 167.207 37.0667V43.9111C166.674 43.7333 166.051 43.6444 165.34 43.6444C163.177 43.6444 161.237 44.4 159.518 45.9111C157.8 47.3926 156.555 49.6741 155.785 52.7556L152.896 64H145.162ZM165.689 64L172.356 37.3333H180.089L173.422 64H165.689ZM177.733 33.4667C176.726 33.4667 175.867 33.1259 175.156 32.4444C174.444 31.763 174.089 30.8889 174.089 29.8222C174.089 28.6074 174.548 27.5407 175.467 26.6222C176.415 25.6741 177.496 25.2 178.711 25.2C179.748 25.2 180.607 25.5556 181.289 26.2667C182 26.9481 182.356 27.8074 182.356 28.8444C182.356 30.0593 181.881 31.1407 180.933 32.0889C180.015 33.0074 178.948 33.4667 177.733 33.4667ZM176.95 64L190.15 49.5111L184.417 37.3333H192.328L193.617 40.3111C193.854 40.8741 194.091 41.4815 194.328 42.1333C194.565 42.7556 194.787 43.4074 194.994 44.0889C195.469 43.4074 195.957 42.7556 196.461 42.1333C196.965 41.5111 197.469 40.9185 197.972 40.3556L200.639 37.3333H209.35L198.15 49.4667L204.728 64H196.55L194.15 58.2667C193.972 57.8519 193.78 57.4074 193.572 56.9333C193.394 56.4593 193.202 55.9407 192.994 55.3778C192.669 55.9111 192.328 56.4148 191.972 56.8889C191.617 57.3333 191.261 57.763 190.906 58.1778L185.839 64H176.95Z" fill="white"/>
</svg>
